<svg id="Layer_1" data-name="Layer 1" xmlns="http://www.w3.org/2000/svg" viewBox="0 0 133 127">
  <defs>
    <style>
      .cls-1, .cls-4 {
        font-size: 12px;
        font-family: Montserrat-Thin, Montserrat;
        font-weight: 200;
      }

      .cls-1, .cls-4, .cls-6 {
        stroke: #aa2c04;
      }

      .cls-1 {
        letter-spacing: 0.06em;
      }

      .cls-2 {
        letter-spacing: 0.04em;
      }

      .cls-3 {
        letter-spacing: 0.06em;
      }

      .cls-4 {
        letter-spacing: 0.06em;
      }

      .cls-5 {
        letter-spacing: 0.05em;
      }

      .cls-6 {
        fill: #aa2c04;
        stroke-miterlimit: 10;
      }
    </style>
  </defs>
  <title>12</title>
  <text class="cls-1" transform="translate(57.77 117.14)">1<tspan class="cls-2" x="4.82" y="0">7</tspan><tspan class="cls-3" x="12.14" y="0">0</tspan></text>
  <text class="cls-4" transform="translate(47.01 22.94)">Antal <tspan x="-39.85" y="14.4">publi</tspan><tspan class="cls-5" x="-6.18" y="14.4">k</tspan><tspan x="1.26" y="14.4">umspladser</tspan></text>
  <g>
    <ellipse class="cls-6" cx="64" cy="55" rx="6" ry="5"/>
    <path class="cls-6" d="M65,62c-3,0-5,1-5,6,0,3,2,13,5,13s16-1,16,1-1,13,0,14a3.67,3.67,0,0,0,3,1,2.15,2.15,0,0,0,2-2c0-1,1-17,0-18a7.64,7.64,0,0,0-5-2c-2,0-8,1-9,0S71,62,65,62Z"/>
    <path class="cls-6" d="M55,69c0,2.24-1,11,4,16s19,3,19,1,0-3-2-3-10,2-13,0-4-14-4-15a2.15,2.15,0,0,0-2-2C56,66,55,67,55,69Z"/>
  </g>
</svg>
