<svg id="Layer_1" data-name="Layer 1" xmlns="http://www.w3.org/2000/svg" viewBox="0 0 139 127"><defs><style>.cls-1{stroke:#aa2c04;}.cls-2{fill:#aa2c04;}</style></defs><path class="cls-1" d="M73,116.92v.22H67.36V117L71,113.28a5.85,5.85,0,0,0,1-1.3,2.58,2.58,0,0,0,.26-1.11,1.79,1.79,0,0,0-.6-1.42,2.65,2.65,0,0,0-1.74-.51,4.07,4.07,0,0,0-1.5.25,2.79,2.79,0,0,0-1.09.77l-.17-.17a3.53,3.53,0,0,1,2.76-1.08,2.92,2.92,0,0,1,1.89.57,2,2,0,0,1,.69,1.58,2.6,2.6,0,0,1-.29,1.21,5.83,5.83,0,0,1-1.06,1.37l-3.44,3.48Z"/><path class="cls-1" d="M79.45,113a2.11,2.11,0,0,1,.81,1.79,2.22,2.22,0,0,1-.72,1.72,3,3,0,0,1-2.08.67,4.32,4.32,0,0,1-1.69-.33,2.72,2.72,0,0,1-1.16-.86l.16-.15a2.61,2.61,0,0,0,1.09.8,4,4,0,0,0,1.6.31,2.78,2.78,0,0,0,1.91-.59,2,2,0,0,0,.65-1.57,1.9,1.9,0,0,0-.75-1.63,4.46,4.46,0,0,0-2.55-.55H75.14l.44-3.87h4.26V109h-4l-.4,3.41h1.38A4.54,4.54,0,0,1,79.45,113Z"/><path class="cls-1" d="M45.5,20.41H40.36l-1.17,2.53h-.28l3.9-8.4h.24l3.9,8.4h-.27Zm-.11-.23-2.46-5.31-2.46,5.31Z"/><path class="cls-1" d="M53.83,17.37a2.59,2.59,0,0,1,.66,1.91v3.66h-.24V19.28a2.43,2.43,0,0,0-.58-1.74A2.17,2.17,0,0,0,52,16.93a2.53,2.53,0,0,0-1.92.73,2.61,2.61,0,0,0-.7,1.91v3.37h-.24v-6.2h.24V18.4a2.46,2.46,0,0,1,1-1.25A2.9,2.9,0,0,1,52,16.7,2.48,2.48,0,0,1,53.83,17.37Z"/><path class="cls-1" d="M60.7,22.54a1.33,1.33,0,0,1-.53.33,2.25,2.25,0,0,1-.68.11,1.47,1.47,0,0,1-1.11-.41A1.57,1.57,0,0,1,58,21.46V17h-1.2v-.23H58V15.38h.24v1.36h2.1V17h-2.1V21.4a1.39,1.39,0,0,0,.33,1,1.19,1.19,0,0,0,.94.35,1.5,1.5,0,0,0,1-.38Z"/><path class="cls-1" d="M66.9,17.26a2.16,2.16,0,0,1,.57,1.62v4.06h-.24V21.62a2.24,2.24,0,0,1-.9,1,2.82,2.82,0,0,1-1.46.36,2.54,2.54,0,0,1-1.62-.47,1.58,1.58,0,0,1-.58-1.27A1.56,1.56,0,0,1,63.19,20a2.57,2.57,0,0,1,1.69-.46h2.35v-.68a2,2,0,0,0-.5-1.47,2,2,0,0,0-1.47-.49,3.27,3.27,0,0,0-1.25.24,2.94,2.94,0,0,0-1,.63l-.17-.17A3.06,3.06,0,0,1,63.92,17a3.74,3.74,0,0,1,1.33-.25A2.27,2.27,0,0,1,66.9,17.26Zm.33,3.91V19.8H64.87a2.36,2.36,0,0,0-1.48.38,1.28,1.28,0,0,0-.48,1.05,1.32,1.32,0,0,0,.52,1.11,2.21,2.21,0,0,0,1.44.41A2.34,2.34,0,0,0,67.23,21.17Z"/><path class="cls-1" d="M70.88,14h.24v8.9h-.24Z"/><path class="cls-1" d="M79.45,17.13A2.69,2.69,0,0,1,81,16.7v.24h-.07a2.19,2.19,0,0,0-1.74.72,2.87,2.87,0,0,0-.62,1.95v3.33h-.24v-6.2h.24v1.61A2.24,2.24,0,0,1,79.45,17.13Z"/><path class="cls-1" d="M88.84,16.74v6.2H88.6V21.3a2.42,2.42,0,0,1-.92,1.24,2.76,2.76,0,0,1-1.57.44,2.5,2.5,0,0,1-1.87-.67,2.56,2.56,0,0,1-.68-1.91V16.74h.24V20.4a2.4,2.4,0,0,0,.6,1.75,2.3,2.3,0,0,0,1.7.6A2.39,2.39,0,0,0,87.93,22a2.72,2.72,0,0,0,.67-1.92V16.74Z"/><path class="cls-1" d="M101.81,17.37a2.63,2.63,0,0,1,.64,1.91v3.66h-.24V19.28a2.47,2.47,0,0,0-.56-1.74,2.07,2.07,0,0,0-1.6-.61,2.43,2.43,0,0,0-1.86.73,2.64,2.64,0,0,0-.68,1.91v3.37h-.24V19.28a2.43,2.43,0,0,0-.57-1.74,2,2,0,0,0-1.59-.61,2.4,2.4,0,0,0-1.86.73,2.65,2.65,0,0,0-.69,1.91v3.37h-.24v-6.2h.24v1.64a2.42,2.42,0,0,1,.94-1.23,2.76,2.76,0,0,1,1.6-.45,2.41,2.41,0,0,1,1.55.48,2.18,2.18,0,0,1,.8,1.37,2.39,2.39,0,0,1,.92-1.35,2.76,2.76,0,0,1,1.67-.5A2.37,2.37,0,0,1,101.81,17.37Z"/><path class="cls-1" d="M47.38,31.51a2.8,2.8,0,0,1,1.09,1.12,3.35,3.35,0,0,1,.4,1.62,3.28,3.28,0,0,1-.4,1.61A2.86,2.86,0,0,1,47.38,37a3,3,0,0,1-1.53.4,2.91,2.91,0,0,1-1.71-.52,2.85,2.85,0,0,1-1.06-1.4v4.21h-.24V31.14h.24V33a2.75,2.75,0,0,1,1.06-1.41,2.89,2.89,0,0,1,1.71-.53A3,3,0,0,1,47.38,31.51Zm-.11,5.28a2.64,2.64,0,0,0,1-1,3.08,3.08,0,0,0,.35-1.5,3.14,3.14,0,0,0-.35-1.51,2.61,2.61,0,0,0-1-1,2.74,2.74,0,0,0-1.42-.38,2.71,2.71,0,0,0-1.41.38,2.54,2.54,0,0,0-1,1,3.15,3.15,0,0,0-.36,1.51,3.08,3.08,0,0,0,.36,1.5,2.57,2.57,0,0,0,1,1,2.79,2.79,0,0,0,1.41.36A2.83,2.83,0,0,0,47.27,36.79Z"/><path class="cls-1" d="M55.24,31.66a2.18,2.18,0,0,1,.57,1.62v4.06h-.24V36a2.24,2.24,0,0,1-.9,1,2.82,2.82,0,0,1-1.46.36,2.49,2.49,0,0,1-1.61-.47A1.56,1.56,0,0,1,51,35.64a1.54,1.54,0,0,1,.53-1.21A2.54,2.54,0,0,1,53.22,34h2.35v-.68a2,2,0,0,0-.49-1.46,2,2,0,0,0-1.47-.5,3.29,3.29,0,0,0-1.26.24,2.94,2.94,0,0,0-1,.63L51.18,32a3.15,3.15,0,0,1,1.08-.68,3.78,3.78,0,0,1,1.33-.25A2.27,2.27,0,0,1,55.24,31.66Zm.33,3.91V34.2H53.21a2.36,2.36,0,0,0-1.48.38,1.28,1.28,0,0,0-.48,1.05,1.38,1.38,0,0,0,.52,1.12,2.26,2.26,0,0,0,1.44.4A2.34,2.34,0,0,0,55.57,35.57Zm-2.86-5.71a1,1,0,0,1-.32-.76,1.14,1.14,0,0,1,.32-.79A1.06,1.06,0,0,1,53.5,28a1.07,1.07,0,0,1,.79.33,1.09,1.09,0,0,1,.32.79,1,1,0,0,1-.32.76,1,1,0,0,1-.79.32A1,1,0,0,1,52.71,29.86Zm1.42-.15a.85.85,0,0,0,.24-.61.84.84,0,0,0-.25-.62.81.81,0,0,0-.62-.27.82.82,0,0,0-.62.26A.86.86,0,0,0,53.5,30,.88.88,0,0,0,54.13,29.71Z"/><path class="cls-1" d="M65.75,36.94a1.38,1.38,0,0,1-.54.33,2.14,2.14,0,0,1-.67.11A1.47,1.47,0,0,1,63.43,37,1.57,1.57,0,0,1,63,35.86V31.37h-1.2v-.23H63V29.79h.24v1.35h2.1v.23h-2.1V35.8a1.38,1.38,0,0,0,.32,1,1.21,1.21,0,0,0,.95.35,1.47,1.47,0,0,0,1-.38Z"/><path class="cls-1" d="M73.09,34.24H67.57a3,3,0,0,0,.38,1.5,2.62,2.62,0,0,0,1,1,3.09,3.09,0,0,0,2.66.13,2.35,2.35,0,0,0,.92-.72l.17.17a2.73,2.73,0,0,1-1,.76,3.21,3.21,0,0,1-1.27.26,3.13,3.13,0,0,1-1.59-.4,2.89,2.89,0,0,1-1.1-1.12,3.24,3.24,0,0,1-.4-1.62,3.45,3.45,0,0,1,.37-1.62,2.77,2.77,0,0,1,2.49-1.52,2.84,2.84,0,0,1,1.47.4,2.77,2.77,0,0,1,1,1.09,3.2,3.2,0,0,1,.38,1.59Zm-4.18-2.56a2.57,2.57,0,0,0-1,1A3.12,3.12,0,0,0,67.57,34h5.3a3,3,0,0,0-.4-1.37,2.65,2.65,0,0,0-1-1,2.54,2.54,0,0,0-1.31-.35A2.51,2.51,0,0,0,68.91,31.68Z"/><path class="cls-1" d="M79.29,31.66a2.18,2.18,0,0,1,.57,1.62v4.06h-.24V36a2.2,2.2,0,0,1-.91,1,2.79,2.79,0,0,1-1.45.36,2.54,2.54,0,0,1-1.62-.47,1.55,1.55,0,0,1-.58-1.27,1.53,1.53,0,0,1,.52-1.21A2.57,2.57,0,0,1,77.27,34h2.35v-.68a1.92,1.92,0,0,0-.5-1.46,2,2,0,0,0-1.47-.5,3.27,3.27,0,0,0-1.25.24,2.94,2.94,0,0,0-1,.63L75.23,32a3.06,3.06,0,0,1,1.08-.68,3.74,3.74,0,0,1,1.33-.25A2.27,2.27,0,0,1,79.29,31.66Zm.33,3.91V34.2H77.26a2.35,2.35,0,0,0-1.48.38,1.28,1.28,0,0,0-.48,1.05,1.35,1.35,0,0,0,.52,1.12,2.26,2.26,0,0,0,1.44.4A2.34,2.34,0,0,0,79.62,35.57Z"/><path class="cls-1" d="M86.08,36.94a1.45,1.45,0,0,1-.54.33,2.19,2.19,0,0,1-.67.11A1.46,1.46,0,0,1,83.76,37a1.52,1.52,0,0,1-.39-1.11V31.37h-1.2v-.23h1.2V29.79h.24v1.35h2.1v.23h-2.1V35.8a1.38,1.38,0,0,0,.32,1,1.2,1.2,0,0,0,.95.35,1.47,1.47,0,0,0,1-.38Z"/><path class="cls-1" d="M89.77,31.53a2.74,2.74,0,0,1,1.55-.43v.24h-.07a2.19,2.19,0,0,0-1.74.72A2.84,2.84,0,0,0,88.88,34v3.33h-.24v-6.2h.24v1.61A2.34,2.34,0,0,1,89.77,31.53Z"/><path class="cls-1" d="M98.8,34.24H93.28a3,3,0,0,0,.37,1.5,2.64,2.64,0,0,0,1,1,2.86,2.86,0,0,0,1.46.37,3,3,0,0,0,1.2-.24,2.43,2.43,0,0,0,.92-.72l.17.17a2.81,2.81,0,0,1-1,.76,3.25,3.25,0,0,1-1.28.26,3.13,3.13,0,0,1-1.59-.4,3,3,0,0,1-1.1-1.12,3.24,3.24,0,0,1-.4-1.62,3.45,3.45,0,0,1,.37-1.62,2.76,2.76,0,0,1,1-1.11,2.71,2.71,0,0,1,1.47-.41,2.83,2.83,0,0,1,1.46.4,2.8,2.8,0,0,1,1,1.09,3.31,3.31,0,0,1,.38,1.59Zm-4.19-2.56a2.55,2.55,0,0,0-.94,1A2.87,2.87,0,0,0,93.28,34h5.29a3,3,0,0,0-.4-1.37,2.57,2.57,0,0,0-1-1,2.51,2.51,0,0,0-1.3-.35A2.54,2.54,0,0,0,94.61,31.68Z"/><path class="cls-1" d="M104.35,36.94a1.33,1.33,0,0,1-.53.33,2.25,2.25,0,0,1-.68.11A1.47,1.47,0,0,1,102,37a1.57,1.57,0,0,1-.39-1.11V31.37h-1.2v-.23h1.2V29.79h.24v1.35H104v.23h-2.1V35.8a1.39,1.39,0,0,0,.33,1,1.19,1.19,0,0,0,.94.35,1.45,1.45,0,0,0,1-.38Z"/><rect class="cls-2" x="50" y="50" width="46" height="2"/><rect class="cls-2" x="50" y="51" width="2" height="42"/><rect class="cls-2" x="50" y="93" width="46" height="2"/><rect class="cls-2" x="94" y="50" width="2" height="43"/><rect class="cls-2" x="66" y="77" width="2" height="17"/><rect class="cls-2" x="73" y="50" width="2" height="17"/><rect class="cls-2" x="68" y="77" width="5" height="2"/><rect class="cls-2" x="84" y="66" width="8" height="2"/><rect class="cls-2" x="70" y="66" width="8" height="2"/><rect class="cls-2" x="52" y="66" width="12" height="2"/></svg>