<svg id="Layer_1" data-name="Layer 1" xmlns="http://www.w3.org/2000/svg" viewBox="0 0 134 127"><defs><style>.cls-1{stroke:#aa2c04;}.cls-2{fill:#aa2c04;}</style></defs><path class="cls-1" d="M50.66,112.56v.18L46.9,121h-.28l3.75-8.17H45.06v1.69h-.24v-1.92Z"/><path class="cls-1" d="M58.08,120.73V121H52.47v-.18l3.63-3.68a5.3,5.3,0,0,0,1-1.3,2.45,2.45,0,0,0,.27-1.11,1.75,1.75,0,0,0-.61-1.42,2.61,2.61,0,0,0-1.73-.52,4,4,0,0,0-1.5.26,2.69,2.69,0,0,0-1.09.76l-.17-.16a3.53,3.53,0,0,1,2.76-1.08,2.87,2.87,0,0,1,1.88.57,1.93,1.93,0,0,1,.7,1.57,2.74,2.74,0,0,1-.29,1.22,5.7,5.7,0,0,1-1.07,1.36l-3.43,3.48Z"/><path class="cls-1" d="M61.51,120.48A3.46,3.46,0,0,1,60.38,119a6.42,6.42,0,0,1,0-4.46,3.43,3.43,0,0,1,1.13-1.48,2.76,2.76,0,0,1,1.67-.52,2.79,2.79,0,0,1,1.68.52A3.43,3.43,0,0,1,66,114.53,6.42,6.42,0,0,1,66,119a3.46,3.46,0,0,1-1.13,1.49,2.86,2.86,0,0,1-1.68.52A2.83,2.83,0,0,1,61.51,120.48Zm3.22-.2a3.23,3.23,0,0,0,1-1.4,5.7,5.7,0,0,0,.37-2.12,5.77,5.77,0,0,0-.37-2.12,3.14,3.14,0,0,0-1-1.39,2.54,2.54,0,0,0-1.55-.5,2.51,2.51,0,0,0-1.54.5,3.14,3.14,0,0,0-1,1.39,5.57,5.57,0,0,0-.37,2.12,5.5,5.5,0,0,0,.37,2.12,3.23,3.23,0,0,0,1,1.4,2.51,2.51,0,0,0,1.54.49A2.53,2.53,0,0,0,64.73,120.28Z"/><path class="cls-1" d="M81.41,112.56V121h-.24v-7.88l-3.83,6.69H77.2l-3.83-6.67V121h-.24v-8.4h.21l3.93,6.89,3.94-6.89Z"/><path class="cls-1" d="M88.14,117.33v.21H84.35v-.16l2.4-2.15a3.43,3.43,0,0,0,.7-.77,1.19,1.19,0,0,0,.19-.64.93.93,0,0,0-.41-.77,2,2,0,0,0-1.21-.3,2.25,2.25,0,0,0-1.66.58l-.15-.14a2.35,2.35,0,0,1,1.81-.65,2.23,2.23,0,0,1,1.38.36,1.11,1.11,0,0,1,.47.91,1.32,1.32,0,0,1-.21.72,4.1,4.1,0,0,1-.74.83l-2.2,2Z"/><path class="cls-1" d="M22.69,18.56,20.6,20.71v2.23h-.24v-8.4h.24v5.85l5.69-5.85h.33L22.87,18.4l4,4.54h-.32Z"/><path class="cls-1" d="M33.41,16.74l-2.86,6.2h-.24l-2.85-6.2h.27l2.7,5.93,2.7-5.93Z"/><path class="cls-1" d="M39,17.26a2.16,2.16,0,0,1,.57,1.62v4.06h-.24V21.62a2.2,2.2,0,0,1-.91,1A2.79,2.79,0,0,1,37,23a2.54,2.54,0,0,1-1.62-.47,1.55,1.55,0,0,1-.58-1.27A1.53,1.53,0,0,1,35.32,20,2.57,2.57,0,0,1,37,19.57h2.35v-.68a2,2,0,0,0-.5-1.47,2,2,0,0,0-1.47-.49,3.24,3.24,0,0,0-1.25.24,2.94,2.94,0,0,0-1,.63L35,17.63A3,3,0,0,1,36.05,17a3.74,3.74,0,0,1,1.33-.25A2.27,2.27,0,0,1,39,17.26Zm.33,3.91V19.8H37a2.4,2.4,0,0,0-1.49.38A1.3,1.3,0,0,0,35,21.23a1.32,1.32,0,0,0,.52,1.11,2.21,2.21,0,0,0,1.44.41A2.34,2.34,0,0,0,39.36,21.17Z"/><path class="cls-1" d="M48.3,14v8.9h-.24V21.05A2.83,2.83,0,0,1,47,22.46a2.86,2.86,0,0,1-1.71.52,2.93,2.93,0,0,1-2.62-1.52,3.56,3.56,0,0,1,0-3.24,2.91,2.91,0,0,1,1.09-1.11,3,3,0,0,1,1.53-.41,2.91,2.91,0,0,1,1.71.53,2.78,2.78,0,0,1,1.06,1.39V14Zm-1.6,8.34a2.57,2.57,0,0,0,1-1,3.08,3.08,0,0,0,.36-1.5,3.12,3.12,0,0,0-.36-1.51,2.54,2.54,0,0,0-1-1,2.7,2.7,0,0,0-1.41-.37,2.74,2.74,0,0,0-1.42.37,2.59,2.59,0,0,0-1,1,3,3,0,0,0-.36,1.51,3,3,0,0,0,.36,1.5,2.61,2.61,0,0,0,1,1,2.74,2.74,0,0,0,1.42.37A2.7,2.7,0,0,0,46.7,22.38Z"/><path class="cls-1" d="M52.91,17.13a2.7,2.7,0,0,1,1.55-.43v.24h-.08a2.19,2.19,0,0,0-1.74.72A2.87,2.87,0,0,0,52,19.61v3.33h-.24v-6.2H52v1.61A2.29,2.29,0,0,1,52.91,17.13Z"/><path class="cls-1" d="M60.61,17.26a2.2,2.2,0,0,1,.57,1.62v4.06h-.24V21.62a2.26,2.26,0,0,1-.91,1,2.82,2.82,0,0,1-1.46.36A2.51,2.51,0,0,1,57,22.51a1.55,1.55,0,0,1-.58-1.27A1.53,1.53,0,0,1,56.9,20a2.55,2.55,0,0,1,1.68-.46h2.36v-.68a2,2,0,0,0-.5-1.47A2,2,0,0,0,59,16.93a3.29,3.29,0,0,0-1.26.24,3,3,0,0,0-1,.63l-.17-.17A3.15,3.15,0,0,1,57.62,17,3.79,3.79,0,0,1,59,16.7,2.29,2.29,0,0,1,60.61,17.26Zm.33,3.91V19.8H58.57a2.38,2.38,0,0,0-1.48.38,1.27,1.27,0,0,0-.47,1.05,1.34,1.34,0,0,0,.51,1.11,2.22,2.22,0,0,0,1.44.41A2.36,2.36,0,0,0,60.94,21.17Z"/><path class="cls-1" d="M67.39,22.54a1.33,1.33,0,0,1-.53.33,2.25,2.25,0,0,1-.68.11,1.47,1.47,0,0,1-1.11-.41,1.57,1.57,0,0,1-.39-1.11V17h-1.2v-.23h1.2V15.38h.24v1.36H67V17h-2.1V21.4a1.43,1.43,0,0,0,.32,1,1.22,1.22,0,0,0,1,.35,1.45,1.45,0,0,0,1-.38Z"/><path class="cls-1" d="M79.45,17.37a2.67,2.67,0,0,1,.64,1.91v3.66h-.24V19.28a2.43,2.43,0,0,0-.57-1.74,2,2,0,0,0-1.59-.61,2.4,2.4,0,0,0-1.86.73,2.65,2.65,0,0,0-.69,1.91v3.37H74.9V19.28a2.47,2.47,0,0,0-.56-1.74,2.07,2.07,0,0,0-1.6-.61,2.43,2.43,0,0,0-1.86.73,2.69,2.69,0,0,0-.68,1.91v3.37H70v-6.2h.24v1.64a2.41,2.41,0,0,1,.93-1.23,2.79,2.79,0,0,1,1.6-.45,2.46,2.46,0,0,1,1.56.48,2.17,2.17,0,0,1,.79,1.37A2.44,2.44,0,0,1,76,17.2a2.76,2.76,0,0,1,1.67-.5A2.37,2.37,0,0,1,79.45,17.37Z"/><path class="cls-1" d="M88.51,19.84H83a3.09,3.09,0,0,0,.37,1.5,2.64,2.64,0,0,0,1,1,2.87,2.87,0,0,0,1.47.37,3,3,0,0,0,1.19-.24,2.43,2.43,0,0,0,.92-.72l.17.17a2.73,2.73,0,0,1-1,.76,3.21,3.21,0,0,1-1.27.26,3.13,3.13,0,0,1-1.59-.4,2.91,2.91,0,0,1-1.11-1.12,3.35,3.35,0,0,1-.4-1.62,3.58,3.58,0,0,1,.37-1.62,2.8,2.8,0,0,1,2.5-1.52,2.87,2.87,0,0,1,1.47.4,2.77,2.77,0,0,1,1,1.09,3.31,3.31,0,0,1,.38,1.59Zm-4.19-2.56a2.62,2.62,0,0,0-.94,1A3,3,0,0,0,83,19.61h5.29a2.87,2.87,0,0,0-.39-1.37,2.65,2.65,0,0,0-1-1,2.63,2.63,0,0,0-2.62,0Z"/><path class="cls-1" d="M94.07,22.54a1.45,1.45,0,0,1-.54.33,2.2,2.2,0,0,1-.68.11,1.49,1.49,0,0,1-1.11-.41,1.57,1.57,0,0,1-.39-1.11V17h-1.2v-.23h1.2V15.38h.24v1.36H93.7V17H91.59V21.4a1.39,1.39,0,0,0,.33,1,1.2,1.2,0,0,0,1,.35,1.47,1.47,0,0,0,1-.38Z"/><path class="cls-1" d="M101.41,19.84H95.89a3.09,3.09,0,0,0,.37,1.5,2.64,2.64,0,0,0,1,1,2.87,2.87,0,0,0,1.47.37,3,3,0,0,0,1.19-.24,2.43,2.43,0,0,0,.92-.72L101,22a2.73,2.73,0,0,1-1,.76,3.21,3.21,0,0,1-1.27.26,3.13,3.13,0,0,1-1.59-.4,2.91,2.91,0,0,1-1.11-1.12,3.35,3.35,0,0,1-.4-1.62A3.46,3.46,0,0,1,96,18.22a2.67,2.67,0,0,1,1-1.11,2.76,2.76,0,0,1,1.47-.41,2.87,2.87,0,0,1,1.47.4,2.77,2.77,0,0,1,1,1.09,3.2,3.2,0,0,1,.38,1.59Zm-4.19-2.56a2.62,2.62,0,0,0-.94,1,3,3,0,0,0-.39,1.37h5.29a2.87,2.87,0,0,0-.39-1.37,2.65,2.65,0,0,0-1-1,2.54,2.54,0,0,0-1.31-.35A2.57,2.57,0,0,0,97.22,17.28Z"/><path class="cls-1" d="M105.29,17.13a2.69,2.69,0,0,1,1.54-.43v.24h-.07a2.19,2.19,0,0,0-1.74.72,2.87,2.87,0,0,0-.62,1.95v3.33h-.24v-6.2h.24v1.61A2.24,2.24,0,0,1,105.29,17.13Z"/><path class="cls-1" d="M54.62,29.33a.33.33,0,0,1-.09-.22.31.31,0,0,1,.31-.31.29.29,0,0,1,.21.09.27.27,0,0,1,.1.22.3.3,0,0,1-.1.22.29.29,0,0,1-.21.09A.29.29,0,0,1,54.62,29.33Zm.1,1.81H55v6.2h-.24Z"/><path class="cls-1" d="M65.79,31.66a2.18,2.18,0,0,1,.57,1.62v4.06h-.24V36a2.2,2.2,0,0,1-.91,1,2.79,2.79,0,0,1-1.45.36,2.54,2.54,0,0,1-1.62-.47,1.55,1.55,0,0,1-.58-1.27,1.53,1.53,0,0,1,.52-1.21A2.57,2.57,0,0,1,63.77,34h2.35v-.68a2,2,0,0,0-.5-1.46,2,2,0,0,0-1.47-.5,3.24,3.24,0,0,0-1.25.24,2.94,2.94,0,0,0-1,.63L61.73,32a3,3,0,0,1,1.08-.68,3.74,3.74,0,0,1,1.33-.25A2.27,2.27,0,0,1,65.79,31.66Zm.33,3.91V34.2H63.76a2.4,2.4,0,0,0-1.49.38,1.3,1.3,0,0,0-.47,1.05,1.35,1.35,0,0,0,.52,1.12,2.26,2.26,0,0,0,1.44.4A2.34,2.34,0,0,0,66.12,35.57Z"/><path class="cls-1" d="M69.77,28.44H70v8.9h-.24Z"/><path class="cls-1" d="M76.06,36.94a1.45,1.45,0,0,1-.54.33,2.2,2.2,0,0,1-.68.11A1.47,1.47,0,0,1,73.73,37a1.57,1.57,0,0,1-.39-1.11V31.37h-1.2v-.23h1.2V29.79h.24v1.35h2.1v.23h-2.1V35.8a1.39,1.39,0,0,0,.33,1,1.2,1.2,0,0,0,1,.35,1.47,1.47,0,0,0,1-.38Z"/><rect class="cls-2" x="48" y="55" width="42" height="2"/><rect class="cls-2" x="48" y="56" width="2" height="43"/><rect class="cls-2" x="88" y="55" width="2" height="32"/><rect class="cls-2" x="73" y="85" width="2" height="15"/><rect class="cls-2" x="48" y="98" width="27" height="2"/><rect class="cls-2" x="73" y="85" width="16" height="2"/></svg>