<?xml version="1.0" encoding="utf-8"?>
<!-- Generator: Adobe Illustrator 24.1.2, SVG Export Plug-In . SVG Version: 6.00 Build 0)  -->
<svg version="1.1" id="Layer_1" xmlns="http://www.w3.org/2000/svg" xmlns:xlink="http://www.w3.org/1999/xlink" x="0px" y="0px"
	 viewBox="0 0 190 73" style="enable-background:new 0 0 190 73;" xml:space="preserve">
<style type="text/css">
	.st0{fill:#903F11;}
	.st1{fill:#FFFFFF;}
	.st2{font-family:'Montserrat-Regular';}
	.st3{font-size:24px;}
</style>
<path class="st0" d="M183,21.7c-3.5,0-7-1.4-9.5-3.8v0c-3.5-3.4-4.8-8.3-3.5-13H21c0.4,1.3,0.6,2.6,0.6,3.9c0,0,0,0,0,0
	c0.1,7.5-6,13.7-13.5,13.7c-1.2,0-2.4-0.2-3.5-0.5v29.8c1.1-0.3,2.3-0.5,3.5-0.5c0,0,0,0,0,0c7.4,0,13.4,5.9,13.5,13.3
	c0,1.2-0.1,2.4-0.4,3.5h149c-0.4-1.3-0.6-2.6-0.6-3.9c0-3.7,1.4-7.2,4-9.8v0c2.5-2.5,5.9-4,9.5-4c0.8,0,1.7,0.1,2.5,0.2V21.4
	C184.7,21.6,183.8,21.7,183,21.7z"/>
<text transform="matrix(1 0 0 1 22.7846 43.5558)" class="st1 st2 st3">KØB BILLET</text>
</svg>
