<svg id="Layer_1" data-name="Layer 1" xmlns="http://www.w3.org/2000/svg" viewBox="0 0 598 803">
  <defs>
    <style>
      .cls-1 {
        fill: #913f12;
      }

      .cls-2 {
        fill: #fff;
      }
    </style>
  </defs>
  <title>Artboard 22</title>
  <g>
    <path class="cls-1" d="M343,304c-49.31-44.83,8-35,37-95s-27-94-44-147-140-8-140-8S114,22,86,85,61,187,86,225s36.32,62.59-1,80c-15.44,7.2-1,43,47,13s4,21,34,14,37.21-39.56,51-15c32,57,50.05-40.07,71-3C301,337,376,334,343,304Z"/>
    <path class="cls-1" d="M165,318S117,553,75,553s85,44,122,44,121-7,125-21-86-182-57-285S165,318,165,318Z"/>
    <path class="cls-1" d="M144,565.55s-7,153-27,163-49-26-63,11,81,31,72,10,69-176,69-176Z"/>
    <path class="cls-1" d="M437.05,707s-3.91,53.5-16.05,57-30.06-9-38.55,4,36.55,14,43.68,3.5C431.26,763.86,455,709,455,709Z"/>
    <path class="cls-1" d="M503.33,707s3.92,53.5,16.05,57,30.06-9,38.56,4-36.56,14-43.69,3.5c-5.13-7.59-28.87-62.45-28.87-62.45Z"/>
    <path class="cls-1" d="M245.59,565.55s7,153,27,163,49-26,63,11-81,31-72,10-69-176-69-176Z"/>
    <path class="cls-1" d="M460,362c-36-.44-118,43-108,107s45,101,108,97,114-41,114-85S542,363,460,362Z"/>
    <path class="cls-1" d="M393,646c-.92,9.17,45,22,82,20s61,5,70-10-13.74-109.8-28.87-103.4-95.88-3.35-106,6S395,626,393,646Z"/>
    <path class="cls-1" d="M421,659s-32,73-19,82,65,5,70,0,0-38,0-38,7,40,20,43,51,19,55,0-24-98-24-98Z"/>
    <path class="cls-2" d="M145,71c-23.33,14.58-47,66-47,83s38,83,38,109-28,34-15,37,44-46,44-14,18.12,18,18.56,34S113,544,111,552s42.58,9.09,43,26c0,0-1,38,0,43s13-41,20-42,40-3,40,5,28,62,27,53-10-48-5-55,63,4,65-9-71.34-197.2-60.67-237.6S292,280,301,295s17,20,17,11-25-25-17-39,61-54,61-76-32-61-34-87-15-47-27-46-81,14-94,14S153,66,145,71Z"/>
    <path class="cls-2" d="M457,382c-39,4-75,15-84,71-11.12,69.18,49,70,52,90s-23,92-11,95,35.08,6.42,25,28.21S401,724,418,724s33,18,41,4,0-22,14-26,12.23,34.81,23.12,31.41S531,745,531,733s-33.5-66.36-26.25-79.18,12,8.94,17.25-5.82c18-51-25.44-71.92-23.22-91S554,525,554,496s1.13-51.95-16-79C519,387,507.37,376.83,457,382Z"/>
    <path class="cls-1" d="M249.27,390.41C261,365,354.11,512.67,348,516S245.61,398.33,249.27,390.41Z"/>
    <path class="cls-1" d="M402.12,594c14.15-5.55-51.8-77.44-54.11-73.76S397.71,595.68,402.12,594Z"/>
  </g>
</svg>
