<svg id="Layer_1" data-name="Layer 1" xmlns="http://www.w3.org/2000/svg" viewBox="0 0 416 401">
  <defs>
    <style>
      .cls-1 {
        fill: #913f12;
      }
    </style>
  </defs>
  <title>Artboard 25</title>
  <g>
    <path class="cls-1" d="M80.82,187.94c17.9,2.49,4.41-69.14,34.18-110.63C159,16,257.18,37.48,306,56.11s13,133.25,34,131.73c24.89-1.79,28-121.13,1-139.3-30.18-20.31-120.57-36.45-159-31.8C132,22.8,93.48,42.25,81,87.91,70.59,126,50.69,183.75,80.82,187.94Z"/>
    <path class="cls-1" d="M339.93,187.28s69.27-40.13,58.56-49.47-57,28.92-57,28.92"/>
    <path class="cls-1" d="M337.41,187.11S278.62,132.77,291.12,126s49.24,40.7,49.24,40.7"/>
    <path class="cls-1" d="M341.66,195.06c-17.9-2.49-4.41,69.14-34.18,110.63-44,61.33-142.18,39.83-191,21.2s-13-133.25-34-131.73c-24.89,1.79-28,121.13-1,139.3,30.18,20.31,120.56,36.45,159,31.8,50-6.06,88.52-25.51,101-71.17C351.89,257,371.79,199.25,341.66,195.06Z"/>
    <path class="cls-1" d="M82.55,195.72S13.28,235.85,24,245.19s57-28.92,57-28.92"/>
    <path class="cls-1" d="M85.07,195.89s58.79,54.34,46.29,61.11-49.25-40.7-49.25-40.7"/>
  </g>
</svg>
