<svg id="Layer_1" data-name="Layer 1" xmlns="http://www.w3.org/2000/svg" viewBox="0 0 106 98">
  <defs>
    <style>
      .cls-1 {
        fill: #8c2020;
      }
    </style>
  </defs>
  <title>faceillustration</title>
  <path class="cls-1" d="M51.5,2A46.51,46.51,0,0,0,42,94a45.62,45.62,0,0,0,5,.75,44.61,44.61,0,0,0,4.5.22c1.18,0,2.34,0,3.5-.13h.08A44.4,44.4,0,0,0,60,94.22,46.5,46.5,0,0,0,51.5,2Zm0,88a39.41,39.41,0,0,1-4.5-.25V59H36V51H47s-.49-12,0-16a10.41,10.41,0,0,1,3-6c2-2,3.47-3.54,5-4,2.87-.87,12,0,12,0v7H62a7.81,7.81,0,0,0-5,2,7.81,7.81,0,0,0-2,5V51H67v8H55V89.85C53.85,90,52.68,90,51.5,90Zm8.5-.88V63H72V47H60s-1-9,0-11,12-1,12-1V21H56s-6,1-10,5-4,11-4,11V47H31V63H42V88.89A41.9,41.9,0,0,1,10,48C10,24.8,28.58,6,51.5,6S93,24.8,93,48A41.89,41.89,0,0,1,60,89.12Z"/>
  <path class="cls-1" d="M60,36c-1,2,0,11,0,11H72V63H60V89.12a41,41,0,0,1-5,.73V59H67V51H55V39a7.81,7.81,0,0,1,2-5,7.81,7.81,0,0,1,5-2h5V25s-9.13-.87-12,0c-1.53.46-3,2-5,4a10.41,10.41,0,0,0-3,6c-.49,4,0,16,0,16H36v8H47V89.75a39.25,39.25,0,0,1-5-.86V63H31V47H42V37s0-7,4-11,10-5,10-5H72V35S61,34,60,36Z"/>
  <path class="cls-1" d="M60,36c-1,2,0,11,0,11H72V63H60V94.22l-4.92.64H55V59H67V51H55V39a7.81,7.81,0,0,1,2-5,7.81,7.81,0,0,1,5-2h5V25s-9.13-.87-12,0c-1.53.46-3,2-5,4a10.41,10.41,0,0,0-3,6c-.49,4,0,16,0,16H36v8H47V94.78L42,94V63H31V47H42V37s0-7,4-11,10-5,10-5H72V35S61,34,60,36Z"/>
</svg>
