<svg id="Layer_1" data-name="Layer 1" xmlns="http://www.w3.org/2000/svg" width="40.2mm" height="42.93mm" viewBox="0 0 113.96 121.69"><defs><style>.cls-1{fill:#999;}</style></defs><path class="cls-1" d="M83.43,2.94l16.7,12.13A9.28,9.28,0,0,0,99,16.4a9.43,9.43,0,0,0-1.65,7.06L76.41,8.27a9.54,9.54,0,0,0,6.12-3.81A9.35,9.35,0,0,0,83.43,2.94Z"/><path class="cls-1" d="M97.3,23.44a9.65,9.65,0,0,0,3.9,6.31,9.51,9.51,0,0,0,2.46,1.3L42.07,115.84a8.9,8.9,0,0,0-1.82-1.7,9.43,9.43,0,0,0-13.16,2.16h0a9.41,9.41,0,0,0-1.19,2.18L9,106.17a9.36,9.36,0,0,0,1.71-1.79A9.58,9.58,0,0,0,8.42,91h0A10.16,10.16,0,0,0,6,89.71L67.54,4.93A9.34,9.34,0,0,0,76.4,8.3Z"/></svg>
