<svg id="Layer_1" data-name="Layer 1" xmlns="http://www.w3.org/2000/svg" viewBox="0 0 190 73">
  <defs>
    <style>
      .cls-1 {
        fill: #999;
      }
    </style>
  </defs>
  <title>Artboard 18</title>
  <path class="cls-1" d="M185,21.43V50.78a12.92,12.92,0,0,0-2.5-.24,13.36,13.36,0,0,0-9.5,4V17.81a13.55,13.55,0,0,0,9.5,3.85A13.76,13.76,0,0,0,185,21.43Z"/>
  <path class="cls-1" d="M173,54.51a13.81,13.81,0,0,0-4,9.76,14.07,14.07,0,0,0,.56,3.92h-149A13.18,13.18,0,0,0,21,64.67,13.41,13.41,0,0,0,7.5,51.34,13.49,13.49,0,0,0,4,51.8V22a13.08,13.08,0,0,0,3.5.47A13.62,13.62,0,0,0,21,8.73a14.07,14.07,0,0,0-.56-3.92h149a13.21,13.21,0,0,0,3.52,13Z"/>
</svg>
