<svg id="Layer_1" data-name="Layer 1" xmlns="http://www.w3.org/2000/svg" width="49.86mm" height="46.11mm" viewBox="0 0 141.33 130.69"><defs><style>.cls-1{fill:#8c2020;}.cls-2{isolation:isolate;}</style></defs><path class="cls-1" d="M109.29,7.9a10,10,0,0,1-7.07,3.43,11.21,11.21,0,0,1-9.73-4.85L18.7,92.27A11.8,11.8,0,0,1,21.37,94c4.65,3.94,5.44,10.67,1.76,15a9.48,9.48,0,0,1-2,1.77L39.43,126.6a9.57,9.57,0,0,1,1.45-2.26c3.64-4.29,10.3-4.62,14.87-.73h0a11.54,11.54,0,0,1,1.93,2.14L131.47,40a12.18,12.18,0,0,1-2.69-1.75,11.65,11.65,0,0,1-4-7.46A9.91,9.91,0,0,1,127,23.17a9.09,9.09,0,0,1,1.39-1.31l-18-15.5A10.16,10.16,0,0,1,109.29,7.9Z"/><g class="cls-2"><g class="cls-2"><path class="cls-1" d="M42,105.75l.46,4,2.83,2.43-.92,1.07L33.64,104l.92-1.06,6.5,5.59L39.64,97l1-1.22,1.13,8.55,9.9.4L50.63,106Z"/></g><g class="cls-2"><path class="cls-1" d="M55.84,89a7,7,0,0,1-2.18,12.12l.72,2.65-.74.86-.9-3.28a7.2,7.2,0,0,1-6-1.77A7,7,0,0,1,49,87.49l-.72-2.67L49,84l.88,3.29A7.2,7.2,0,0,1,55.84,89Zm-3.46,11L49.32,88.81a5.53,5.53,0,0,0-2.48,1.67,5.59,5.59,0,0,0,.81,8.08A6,6,0,0,0,52.38,100.05Zm2.55-10a6,6,0,0,0-4.7-1.51l3.06,11.24a5.66,5.66,0,0,0,2.47-1.68A5.57,5.57,0,0,0,54.93,90.1Z"/><path class="cls-1" d="M67.65,80.38c1.83,1.57,1.78,3.74-.38,6.26l-4,4.63L52.52,82l3.74-4.34c1.93-2.25,4.06-2.67,5.81-1.16a3.3,3.3,0,0,1,1.12,3.64A3.34,3.34,0,0,1,67.65,80.38ZM54.37,81.75l3.91,3.36L61,81.9c1.38-1.61,1.53-3.11.24-4.22s-2.76-.75-4.15.87Zm12.27-.39c-1.4-1.2-2.84-.76-4.37,1l-3.05,3.55,4,3.48,3.06-3.56C67.84,84.07,68.05,82.58,66.64,81.36Z"/><path class="cls-1" d="M80.23,65.75c1.82,1.58,1.78,3.74-.38,6.26l-4,4.64L65.1,67.39,68.83,63c1.94-2.24,4.07-2.66,5.82-1.16a3.31,3.31,0,0,1,1.12,3.65A3.34,3.34,0,0,1,80.23,65.75ZM67,67.13l3.91,3.36,2.76-3.21c1.38-1.61,1.53-3.12.23-4.23s-2.75-.74-4.14.87Zm12.27-.39c-1.4-1.2-2.85-.77-4.37,1L71.79,71.3l4,3.47,3-3.55C80.42,69.45,80.63,68,79.22,66.74Z"/><path class="cls-1" d="M74.43,56.54l.92-1.07,10.76,9.26-.92,1.06Z"/><path class="cls-1" d="M78.17,52.19l.92-1.06,9.77,8.41,4.86-5.65,1,.85-5.77,6.71Z"/><path class="cls-1" d="M85.46,43.71l.92-1.06,9.78,8.41L101,45.42l1,.84L96.22,53Z"/><path class="cls-1" d="M108.66,36.52l1,.85-6.12,7.12L92.75,35.24l6-6.91,1,.84-5,5.85,3.83,3.29L103,33.1l1,.83-4.48,5.21,4,3.44Z"/><path class="cls-1" d="M103.7,24.5l-3,3.54-1-.85,7-8.15,1,.85-3,3.54,9.78,8.41-.92,1.07Z"/></g></g></svg>
