<svg id="Layer_1" data-name="Layer 1" xmlns="http://www.w3.org/2000/svg" viewBox="0 0 135 135">
  <defs>
    <style>
      .cls-1 {
        fill: #8c2020;
      }
    </style>
  </defs>
  <title>Artboard 37</title>
  <path class="cls-1" d="M11,41v88H128V41Zm110,82H19V47H121Z"/>
  <path class="cls-1" d="M11,11V41H128V11ZM125,38H14V14H125Z"/>
  <rect class="cls-1" x="96" y="53" width="18" height="12"/>
  <rect class="cls-1" x="96" y="71" width="18" height="12"/>
  <rect class="cls-1" x="96" y="89" width="18" height="12"/>
  <rect class="cls-1" x="72" y="89" width="18" height="12"/>
  <rect class="cls-1" x="72" y="71" width="18" height="12"/>
  <rect class="cls-1" x="72" y="53" width="18" height="12"/>
  <rect class="cls-1" x="48" y="53" width="18" height="12"/>
  <rect class="cls-1" x="48" y="71" width="18" height="12"/>
  <rect class="cls-1" x="48" y="89" width="18" height="12"/>
  <rect class="cls-1" x="25" y="107" width="18" height="12"/>
  <rect class="cls-1" x="48" y="107" width="18" height="12"/>
  <rect class="cls-1" x="25" y="89" width="18" height="12"/>
  <rect class="cls-1" x="25" y="71" width="18" height="12"/>
  <rect class="cls-1" x="25" y="53" width="18" height="12"/>
  <rect class="cls-1" x="19" y="5" width="3" height="13"/>
  <rect class="cls-1" x="25" y="5" width="3" height="13"/>
  <rect class="cls-1" x="41" y="5" width="3" height="13"/>
  <rect class="cls-1" x="47" y="5" width="3" height="13"/>
  <rect class="cls-1" x="65" y="5" width="3" height="13"/>
  <rect class="cls-1" x="71" y="5" width="3" height="13"/>
  <rect class="cls-1" x="87" y="5" width="3" height="13"/>
  <rect class="cls-1" x="93" y="5" width="3" height="13"/>
  <rect class="cls-1" x="109" y="5" width="3" height="13"/>
  <rect class="cls-1" x="115" y="5" width="3" height="13"/>
</svg>
