<svg id="Layer_1" data-name="Layer 1" xmlns="http://www.w3.org/2000/svg" viewBox="0 0 125 127">
  <defs>
    <style>
      .cls-1 {
        fill: #999;
      }
    </style>
  </defs>
  <title>Artboard 17</title>
  <path class="cls-1" d="M3,36v88H120V36Zm110,82H11V42H113Z"/>
  <path class="cls-1" d="M3,6V36H120V6ZM117,33H6V9H117Z"/>
  <rect class="cls-1" x="88" y="48" width="18" height="12"/>
  <rect class="cls-1" x="88" y="66" width="18" height="12"/>
  <rect class="cls-1" x="88" y="84" width="18" height="12"/>
  <rect class="cls-1" x="64" y="84" width="18" height="12"/>
  <rect class="cls-1" x="64" y="66" width="18" height="12"/>
  <rect class="cls-1" x="64" y="48" width="18" height="12"/>
  <rect class="cls-1" x="40" y="48" width="18" height="12"/>
  <rect class="cls-1" x="40" y="66" width="18" height="12"/>
  <rect class="cls-1" x="40" y="84" width="18" height="12"/>
  <rect class="cls-1" x="17" y="102" width="18" height="12"/>
  <rect class="cls-1" x="40" y="102" width="18" height="12"/>
  <rect class="cls-1" x="17" y="84" width="18" height="12"/>
  <rect class="cls-1" x="17" y="66" width="18" height="12"/>
  <rect class="cls-1" x="17" y="48" width="18" height="12"/>
  <rect class="cls-1" x="11" width="3" height="13"/>
  <rect class="cls-1" x="17" width="3" height="13"/>
  <rect class="cls-1" x="33" width="3" height="13"/>
  <rect class="cls-1" x="39" width="3" height="13"/>
  <rect class="cls-1" x="57" width="3" height="13"/>
  <rect class="cls-1" x="63" width="3" height="13"/>
  <rect class="cls-1" x="79" width="3" height="13"/>
  <rect class="cls-1" x="85" width="3" height="13"/>
  <rect class="cls-1" x="101" width="3" height="13"/>
  <rect class="cls-1" x="107" width="3" height="13"/>
</svg>
