<svg id="Layer_1" data-name="Layer 1" xmlns="http://www.w3.org/2000/svg" viewBox="0 0 768 1002">
  <defs>
    <style>
      .cls-1 {
        fill: #fff;
      }
    </style>
  </defs>
  <title>iconmouse</title>
  <path class="cls-1" d="M441.35,56H337.65C213,56,112,157,112,281.65v425.7C112,832,213,933,337.65,933h103.7C566,933,667,832,667,707.35V281.65C667,157,566,56,441.35,56ZM638,685.13c0,111.6-90.47,202.07-202.07,202.07H343.07C231.47,887.2,141,796.73,141,685.13V303.92c0-111.6,90.47-202.07,202.07-202.07h92.86c111.6,0,202.07,90.47,202.07,202.07Z"/>
  <path class="cls-1" d="M415.65,304H363.57a47.45,47.45,0,0,0-47.45,47.45v113.1A47.45,47.45,0,0,0,363.57,512h52.08a47.45,47.45,0,0,0,47.45-47.45V351.45A47.45,47.45,0,0,0,415.65,304ZM439,470.05A18.94,18.94,0,0,1,420.05,489h-61a18.94,18.94,0,0,1-18.94-18.95V347A18.94,18.94,0,0,1,359.06,328h61A18.94,18.94,0,0,1,439,347Z"/>
</svg>
