<svg id="Layer_1" data-name="Layer 1" xmlns="http://www.w3.org/2000/svg" viewBox="0 0 102 95">
  <defs>
    <style>
      .cls-1 {
        fill: #8c2020;
      }
    </style>
  </defs>
  <title>instaillustrattion</title>
  <path class="cls-1" d="M52,25A22,22,0,1,0,74,47,22,22,0,0,0,52,25Zm0,40A18,18,0,1,1,70,47,18,18,0,0,1,52,65Z"/>
  <circle class="cls-1" cx="75" cy="24" r="4"/>
  <path class="cls-1" d="M73.7,2H29.3A23.3,23.3,0,0,0,6,25.3V69.7A23.3,23.3,0,0,0,29.3,93H73.7A23.3,23.3,0,0,0,97,69.7V25.3A23.3,23.3,0,0,0,73.7,2ZM93,65.7A23.3,23.3,0,0,1,69.7,89H33.3A23.3,23.3,0,0,1,10,65.7V28.3A23.3,23.3,0,0,1,33.3,5H69.7A23.3,23.3,0,0,1,93,28.3Z"/>
  <path class="cls-1" d="M52,25A22,22,0,1,0,74,47,22,22,0,0,0,52,25Zm0,40A18,18,0,1,1,70,47,18,18,0,0,1,52,65Z"/>
  <circle class="cls-1" cx="75" cy="24" r="4"/>
  <path class="cls-1" d="M52,25A22,22,0,1,0,74,47,22,22,0,0,0,52,25Zm0,40A18,18,0,1,1,70,47,18,18,0,0,1,52,65Z"/>
  <circle class="cls-1" cx="75" cy="24" r="4"/>
</svg>
