<svg id="Layer_1" data-name="Layer 1" xmlns="http://www.w3.org/2000/svg" viewBox="0 0 214 85">
  <defs>
    <style>
      .cls-1 {
        fill: #8c2020;
      }

      .cls-2 {
        fill: #606060;
      }

      .cls-3 {
        font-size: 22.22px;
        fill: #fff;
        font-family: Montserrat-Regular, Montserrat;
      }

      .cls-4 {
        letter-spacing: -0.03em;
      }
    </style>
  </defs>
  <title>koebbillet</title>
  <path class="cls-1" d="M175.13,18.84c2.61,2.2,11.71,2.2,11.71,2.2V63.1a34.76,34.76,0,0,0-11.71,2.21c-5.2,2.21-6.51,7.75-6.51,7.75L46.24,76.38s-1.3-6.64-3.91-10-13-3.32-13-3.32V21s7.81,0,14.32-3.31,6.5-6.64,6.5-6.64H171.23S172.52,16.62,175.13,18.84Z"/>
  <path class="cls-1" d="M209.71,47.18l-1-3.16s-3.29-1.51-2.67-3.92a4.59,4.59,0,0,1,3.23-3l-.05-4.54s-3-.44-3.64-2.55,3.23-3,3.23-3l-.41-5.59s-3-.44-2.31-2.86,3.56-2,3.56-2L209.56,12s-16.84.23-20.82-3.38A9.57,9.57,0,0,1,185.84,0H29.32s4,5.16-1.45,9.86S5.08,14.34,5.08,14.34L3.84,19.18s5.91.89,5.29,3.3-4.89,2.28-4.89,2.28L5.61,29s3,.44,3.63,2.56-5.5,4.69-5.5,4.69l1.37,4.23s4.6,1.19,4,3.61S4.2,46.36,4.2,46.36l.06,4.53s4.61,1.19,4,3.61-4.88,2.28-4.88,2.28l.06,4.53S8,62.51,8.71,64.62s-6.2,2.58-6.2,2.58l1.71,5.28s19.13-1.68,23.65,1.43C33.22,77.61,32.22,85,32.22,85l152.17-2.46s-.33-6.83,2.9-9.86,21.07-3.6,21.07-3.6l-.06-4.53s-3.3-1.49-2.68-3.92,3.58-2,3.58-2l-.06-4.53s-4.26-.14-4-3.61S209.71,47.18,209.71,47.18ZM196,65.29s-7.24,0-13,2.46-7.25,8.63-7.25,8.63L39.46,80.07S38,72.68,35.11,69s-14.49-3.7-14.49-3.7V18.48s8.7,0,15.94-3.7,7.25-7.39,7.25-7.39H178.59S180,13.55,182.94,16s13,2.47,13,2.47Z"/>
  <path class="cls-2" d="M186.84,21V63.1a34.76,34.76,0,0,0-11.71,2.21c-5.2,2.21-6.51,7.75-6.51,7.75L46.24,76.38s-1.3-6.64-3.91-10-13-3.32-13-3.32V21s7.81,0,14.32-3.31,6.5-6.64,6.5-6.64H171.23s1.29,5.53,3.9,7.75S186.84,21,186.84,21Z"/>
  <path class="cls-1" d="M186.84,21V63.1a34.76,34.76,0,0,0-11.71,2.21c-5.2,2.21-6.51,7.75-6.51,7.75L46.24,76.38s-1.3-6.64-3.91-10-13-3.32-13-3.32V21s7.81,0,14.32-3.31,6.5-6.64,6.5-6.64H171.23s1.29,5.53,3.9,7.75S186.84,21,186.84,21Z"/>
  <text class="cls-3" transform="translate(41.12 49.38)"><tspan class="cls-4">K</tspan><tspan x="15.24" y="0">ØB BILLET</tspan></text>
</svg>
