<svg id="Layer_1" data-name="Layer 1" xmlns="http://www.w3.org/2000/svg" viewBox="0 0 176 62">
  <defs>
    <style>
      .cls-1 {
        fill: #8c2020;
      }

      .cls-2 {
        fill: #606060;
      }

      .cls-3 {
        font-size: 20px;
        fill: #fff;
        font-family: Montserrat-Regular, Montserrat;
      }

      .cls-4 {
        letter-spacing: -0.02em;
      }
    </style>
  </defs>
  <title>koebbillet2</title>
  <path class="cls-1" d="M146.21,13.74c2.17,1.61,9.75,1.61,9.75,1.61V46a32.52,32.52,0,0,0-9.75,1.62,9,9,0,0,0-5.41,5.65L38.92,55.71s-1.09-4.84-3.26-7.26S24.83,46,24.83,46V15.35a33.58,33.58,0,0,0,11.92-2.42c5.41-2.43,5.41-4.84,5.41-4.84H143S144,12.12,146.21,13.74Z"/>
  <path class="cls-1" d="M175,34.41l-.86-2.3s-2.73-1.1-2.22-2.86S174.61,27,174.61,27l0-3.31s-2.47-.32-3-1.86,2.69-2.21,2.69-2.21l-.34-4.08s-2.46-.32-1.93-2.08,3-1.44,3-1.44l-.05-3.31s-14,.17-17.34-2.46A6.4,6.4,0,0,1,155.13,0H24.83s3.37,3.76-1.21,7.19-19,3.27-19,3.27L3.62,14s4.92.65,4.4,2.41S4,18.06,4,18.06l1.14,3.08s2.46.33,3,1.87-4.59,3.43-4.59,3.43l1.15,3.08s3.82.87,3.3,2.63-4.06,1.66-4.06,1.66L4,37.12S7.8,38,7.28,39.75s-4.06,1.66-4.06,1.66l0,3.31s3.83.87,4.4,2.42S2.51,49,2.51,49l1.42,3.85s15.92-1.23,19.69,1c4.45,2.7,3.62,8.09,3.62,8.09l126.68-1.8s-.27-5,2.42-7.19,17.54-2.62,17.54-2.62l0-3.31s-2.75-1.08-2.23-2.85,3-1.44,3-1.44l-.05-3.31s-3.55-.1-3.32-2.63S175,34.41,175,34.41ZM163.57,47.62a36.25,36.25,0,0,0-10.85,1.8,10.09,10.09,0,0,0-6,6.29L33.27,58.41s-1.21-5.4-3.62-8.09-12.06-2.7-12.06-2.7V13.48a37.3,37.3,0,0,0,13.27-2.7c6-2.69,6-5.39,6-5.39H149.1s1.2,4.49,3.62,6.29,10.85,1.8,10.85,1.8Z"/>
  <path class="cls-2" d="M156,15.35V46a32.52,32.52,0,0,0-9.75,1.62,9,9,0,0,0-5.41,5.65L38.92,55.71s-1.09-4.84-3.26-7.26S24.83,46,24.83,46V15.35a33.58,33.58,0,0,0,11.92-2.42c5.41-2.43,5.41-4.84,5.41-4.84H143s1.07,4,3.24,5.65S156,15.35,156,15.35Z"/>
  <path class="cls-1" d="M156,15.35V46a32.52,32.52,0,0,0-9.75,1.62,9,9,0,0,0-5.41,5.65L38.92,55.71s-1.09-4.84-3.26-7.26S24.83,46,24.83,46V15.35a33.58,33.58,0,0,0,11.92-2.42c5.41-2.43,5.41-4.84,5.41-4.84H143s1.07,4,3.24,5.65S156,15.35,156,15.35Z"/>
  <text class="cls-3" transform="translate(29.92 37.5)"><tspan class="cls-4">K</tspan><tspan x="13.72" y="0">ØB BILLET</tspan></text>
</svg>
