<svg id="Layer_1" data-name="Layer 1" xmlns="http://www.w3.org/2000/svg" viewBox="0 0 171 270">
  <defs>
    <style>
      .cls-1 {
        fill: #fff;
      }
    </style>
  </defs>
  <title>muscursour</title>
  <path class="cls-1" d="M76.71,265.88a148.85,148.85,0,0,1-18.44-.77c-7.55-1.12-26.22-5.67-36.6-23.65-7.09-12.29-6.47-32.85-5.92-51,.13-4.26.25-8.28.25-11.84,0-1.18,0-2.37,0-3.56-.06-16.84-.13-35.93,12.85-55.46C43,98.34,80.23,98.56,83,98.61s40-.26,54.16,21c13,19.53,12.91,38.62,12.85,55.46,0,1.19,0,2.38,0,3.56,0,3.56.12,7.58.25,11.84.55,18.15,1.17,38.71-5.92,51-10.38,18-29.05,22.53-36.6,23.65-4.28.63-12.6.88-24.73.73Q79.66,265.89,76.71,265.88Zm5.71-157.27a98,98,0,0,0-18.72,2c-8.94,1.86-20.79,5.9-26.54,14.54C25.87,142.14,25.93,158.85,26,175c0,1.2,0,2.41,0,3.6,0,3.71-.12,7.81-.25,12.14-.49,16-1.09,35.88,4.58,45.7,8.2,14.21,23.29,17.85,29.4,18.75,2.59.39,8.72.81,23.21.63h.12c14.49.19,20.62-.24,23.21-.63,6.11-.9,21.2-4.54,29.4-18.75,5.67-9.82,5.07-29.71,4.58-45.7-.13-4.33-.25-8.43-.25-12.14,0-1.19,0-2.4,0-3.6.06-16.17.12-32.88-11.17-49.89-5.75-8.64-17.6-12.68-26.54-14.54a96.83,96.83,0,0,0-19.19-2h-.69Z"/>
  <path class="cls-1" d="M88,106v34.63A6.2,6.2,0,0,0,83.77,139H82.23A6.21,6.21,0,0,0,78,140.66V106a5,5,0,1,1,10,0Z"/>
  <path class="cls-1" d="M83.77,153A6.2,6.2,0,0,0,88,151.39V172a5,5,0,1,1-10,0V151.34A6.21,6.21,0,0,0,82.23,153Z"/>
  <path class="cls-1" d="M90.25,133H76.75A5.74,5.74,0,0,0,71,138.75v13.5A5.74,5.74,0,0,0,76.75,158h13.5A5.74,5.74,0,0,0,96,152.25v-13.5A5.74,5.74,0,0,0,90.25,133ZM90,146.77A6.23,6.23,0,0,1,83.77,153H82.23A6.24,6.24,0,0,1,76,146.77v-1.54A6.24,6.24,0,0,1,82.23,139h1.54A6.23,6.23,0,0,1,90,145.23Z"/>
  <path class="cls-1" d="M86.59,104.24l-9.78-2.08,4.89,1-4.89-1c1.23-5.85,3-23.83-4.56-29.47-3-2.22-7.53-1.64-12.33-1-5.6.72-11.94,1.54-16.78-2.61-3.68-3.15-5.47-8.27-5.65-16.1C36.85,25.48,48.93,9.22,49.44,8.54l8,6c-.09.13-10.47,14.34-9.92,38.16.14,6.34,1.56,8.23,2.16,8.74,1.46,1.25,5.29.76,9,.28C64.57,61,72,60,78.2,64.66s9.55,12.89,9.74,24.51A73.73,73.73,0,0,1,86.59,104.24Z"/>
</svg>
