<svg id="Layer_1" data-name="Layer 1" xmlns="http://www.w3.org/2000/svg" viewBox="0 0 181 63.38">
  <defs>
    <style>
      .cls-1 {
        fill: #aa2c04;
      }
    </style>
  </defs>
  <title>Artboard 26</title>
  <path class="cls-1" d="M178.5,16.85A13.55,13.55,0,0,1,169,13a13.21,13.21,0,0,1-3.52-13h-149A14.07,14.07,0,0,1,17,3.92,13.62,13.62,0,0,1,3.5,17.65,13.08,13.08,0,0,1,0,17.18V47a13.49,13.49,0,0,1,3.5-.46A13.41,13.41,0,0,1,17,59.86a13.18,13.18,0,0,1-.48,3.52h149a14.07,14.07,0,0,1-.56-3.92,13.81,13.81,0,0,1,4-9.76,13.36,13.36,0,0,1,9.5-4A12.92,12.92,0,0,1,181,46V16.62A13.76,13.76,0,0,1,178.5,16.85Z"/>
</svg>
